<?xml version="1.0" encoding="UTF-8" standalone="no"?>
<!DOCTYPE svg PUBLIC "-//W3C//DTD SVG 1.0//EN" "http://www.w3.org/TR/2001/REC-SVG-20010904/DTD/svg10.dtd">
<!-- Generato da Microsoft Visio 11.0, SVG Export, v1.0 xmlb-17.svg Pagina 1 -->
<svg xmlns="http://www.w3.org/2000/svg" xmlns:v="http://schemas.microsoft.com/visio/2003/SVGExtensions/" width="5.13988in"
		height="3.16961in" viewBox="0 0 370.071 228.212" xml:space="preserve" color-interpolation-filters="sRGB" class="st13">
	<v:documentProperties v:langID="1040" v:metric="true" v:viewMarkup="false">
		<v:userDefs>
			<v:ud v:nameU="MBSAAddinOutlineVisible" v:prompt="" v:val="VT0(1):26"/>
		</v:userDefs>
	</v:documentProperties>

	<style type="text/css">
	<![CDATA[
		.st1 {fill:#ffffff;stroke:none;stroke-linecap:round;stroke-linejoin:round;stroke-width:0.72}
		.st2 {fill:#ffffff;stroke:#000000;stroke-linecap:round;stroke-linejoin:round;stroke-width:0.72}
		.st3 {fill:#ffffff;stroke:#000000;stroke-dasharray:5.04,3.6;stroke-linecap:round;stroke-linejoin:round;stroke-width:0.72}
		.st4 {fill:none;stroke:none;stroke-linecap:round;stroke-linejoin:round;stroke-width:0.72}
		.st5 {fill:#000000;font-family:Arial;font-size:0.666664em}
		.st6 {stroke:#000000;stroke-dasharray:0.72,1.44;stroke-linecap:round;stroke-linejoin:round;stroke-width:0.72}
		.st7 {fill:#000000;stroke:#000000;stroke-linecap:round;stroke-linejoin:round;stroke-width:0.72}
		.st8 {fill:#000000;font-family:Arial;font-size:0.666664em;font-style:italic}
		.st9 {stroke:#000000;stroke-linecap:round;stroke-linejoin:round;stroke-width:0.72}
		.st10 {fill:#000000;font-family:Arial;font-size:0.666664em;font-weight:bold}
		.st11 {font-size:1em;font-weight:normal}
		.st12 {font-size:1em;font-weight:bold}
		.st13 {fill:none;fill-rule:evenodd;font-size:12;overflow:visible;stroke-linecap:square;stroke-miterlimit:3}
	]]>
	</style>

	<g v:mID="0" v:index="1" v:groupContext="foregroundPage">
		<title>Pagina 1</title>
		<v:pageProperties v:drawingScale="0.0393701" v:pageScale="0.0393701" v:drawingUnits="24" v:shadowOffsetX="8.50394"
				v:shadowOffsetY="-8.50394"/>
		<g id="shape1-1" v:mID="1" v:groupContext="shape" transform="translate(0.847559,-0.72)">
			<title>Foglio.1</title>
			<rect x="0" y="1.44" width="368.504" height="226.772" class="st1"/>
		</g>
		<g id="shape6-3" v:mID="6" v:groupContext="shape" transform="translate(34.8633,-142.452)">
			<title>Foglio.6</title>
			<rect x="0" y="180.023" width="113.386" height="48.189" class="st2"/>
		</g>
		<g id="shape23-5" v:mID="23" v:groupContext="shape" transform="translate(68.8791,-148.122)">
			<title>Foglio.23</title>
			<path d="M0 228.21 L73.7 228.21 L73.7 211.2 L0 211.2 L0 228.21 Z" class="st3"/>
		</g>
		<g id="shape20-7" v:mID="20" v:groupContext="shape" transform="translate(29.194,-195.501)">
			<title>Foglio.20</title>
			<desc>XML Schema Components</desc>
			<v:textBlock v:margins="rect(4,4,4,4)" v:tabSpace="42.5197"/>
			<v:textRect cx="56.6929" cy="219.303" width="113.39" height="17.8178"/>
			<rect x="0" y="210.394" width="113.386" height="17.8178" class="st4"/>
			<text x="4" y="221.7" class="st5" v:langID="1040"><v:paragraph/><v:tabList/>XML Schema Components</text>		</g>
		<g id="shape21-10" v:mID="21" v:groupContext="shape" transform="translate(34.8633,-172.823)">
			<title>Foglio.21</title>
			<desc>ComplexType A</desc>
			<v:textBlock v:margins="rect(4,4,4,4)" v:tabSpace="42.5197"/>
			<v:textRect cx="56.6929" cy="219.303" width="113.39" height="17.8178"/>
			<rect x="0" y="210.394" width="113.386" height="17.8178" class="st4"/>
			<text x="4" y="221.7" class="st5" v:langID="1040"><v:paragraph/><v:tabList/>ComplexType A</text>		</g>
		<g id="shape22-13" v:mID="22" v:groupContext="shape" transform="translate(68.8791,-147.312)">
			<title>Foglio.22</title>
			<desc>content model</desc>
			<v:textBlock v:margins="rect(4,4,4,4)" v:tabSpace="42.5197"/>
			<v:textRect cx="31.1811" cy="219.303" width="62.37" height="17.8178"/>
			<rect x="0" y="210.394" width="62.3622" height="17.8178" class="st4"/>
			<text x="4" y="221.7" class="st5" v:langID="1040"><v:paragraph/><v:tabList/>content model</text>		</g>
		<g id="shape24-16" v:mID="24" v:groupContext="shape" transform="translate(233.005,-131.397)">
			<title>Foglio.24</title>
			<rect x="0" y="157.346" width="119.041" height="70.8661" class="st2"/>
		</g>
		<g id="shape25-18" v:mID="25" v:groupContext="shape" transform="translate(254.135,-136.783)">
			<title>Foglio.25</title>
			<rect x="0" y="193.791" width="89.2807" height="34.4207" class="st2"/>
		</g>
		<g id="shape26-20" v:mID="26" v:groupContext="shape" transform="translate(227.619,-204.005)">
			<title>Foglio.26</title>
			<desc>JAXB Java Representation</desc>
			<v:textBlock v:margins="rect(4,4,4,4)" v:tabSpace="42.5197"/>
			<v:textRect cx="56.6929" cy="219.303" width="113.39" height="17.8178"/>
			<rect x="0" y="210.394" width="113.386" height="17.8178" class="st4"/>
			<text x="4" y="221.7" class="st5" v:langID="1040"><v:paragraph/><v:tabList/>JAXB Java Representation</text>		</g>
		<g id="shape27-23" v:mID="27" v:groupContext="shape" transform="translate(236.123,-181.732)">
			<title>Foglio.27</title>
			<desc>class A</desc>
			<v:textBlock v:margins="rect(4,4,4,4)" v:tabSpace="42.5197"/>
			<v:textRect cx="52.4409" cy="219.303" width="104.89" height="17.8178"/>
			<rect x="0" y="210.394" width="104.882" height="17.8178" class="st4"/>
			<text x="4" y="221.7" class="st5" v:langID="1040"><v:paragraph/><v:tabList/>class A</text>		</g>
		<g id="shape28-26" v:mID="28" v:groupContext="shape" transform="translate(253.131,-153.386)">
			<title>Foglio.28</title>
			<desc>PropertySet</desc>
			<v:textBlock v:margins="rect(4,4,4,4)" v:tabSpace="42.5197"/>
			<v:textRect cx="31.1811" cy="219.303" width="62.37" height="17.8178"/>
			<rect x="0" y="210.394" width="62.3622" height="17.8178" class="st4"/>
			<text x="4" y="221.7" class="st5" v:langID="1040"><v:paragraph/><v:tabList/>PropertySet</text>		</g>
		<g id="shape29-29" v:mID="29" v:groupContext="shape" transform="translate(253.131,301.419) rotate(180)">
			<title>Foglio.29</title>
			<path d="M0 228.21 L110.55 228.21" class="st6"/>
		</g>
		<g id="shape30-32" v:mID="30" v:groupContext="shape" transform="translate(471.705,70.4523) rotate(90)">
			<title>Foglio.30</title>
			<path d="M5.67 228.21 L0 228.21 L2.83 218.57 L5.67 228.21 Z" class="st7"/>
		</g>
		<g id="shape31-34" v:mID="31" v:groupContext="shape" transform="translate(184.844,-133.948)">
			<title>Foglio.31</title>
			<desc>derive</desc>
			<v:textBlock v:margins="rect(4,4,4,4)" v:tabSpace="42.5197"/>
			<v:textRect cx="19.9701" cy="219.303" width="39.95" height="17.8178"/>
			<rect x="0" y="210.394" width="39.9402" height="17.8178" class="st4"/>
			<text x="4" y="221.7" class="st8" v:langID="1040"><v:paragraph/><v:tabList/>derive</text>		</g>
		<g id="shape2-37" v:mID="2" v:groupContext="shape" transform="translate(34.8633,-9.22394)">
			<title>Foglio.2</title>
			<rect x="0" y="180.023" width="113.386" height="48.189" class="st2"/>
		</g>
		<g id="shape3-39" v:mID="3" v:groupContext="shape" transform="translate(68.8791,-14.8932)">
			<title>Foglio.3</title>
			<path d="M0 228.21 L73.7 228.21 L73.7 211.2 L0 211.2 L0 228.21 Z" class="st3"/>
		</g>
		<g id="shape5-41" v:mID="5" v:groupContext="shape" transform="translate(34.8633,-39.5951)">
			<title>Foglio.5</title>
			<desc>ComplexType C</desc>
			<v:textBlock v:margins="rect(4,4,4,4)" v:tabSpace="42.5197"/>
			<v:textRect cx="56.6929" cy="219.303" width="113.39" height="17.8178"/>
			<rect x="0" y="210.394" width="113.386" height="17.8178" class="st4"/>
			<text x="4" y="221.7" class="st5" v:langID="1040"><v:paragraph/><v:tabList/>ComplexType C</text>		</g>
		<g id="shape7-44" v:mID="7" v:groupContext="shape" transform="translate(68.8791,-14.0833)">
			<title>Foglio.7</title>
			<desc>content model</desc>
			<v:textBlock v:margins="rect(4,4,4,4)" v:tabSpace="42.5197"/>
			<v:textRect cx="31.1811" cy="219.303" width="62.37" height="17.8178"/>
			<rect x="0" y="210.394" width="62.3622" height="17.8178" class="st4"/>
			<text x="4" y="221.7" class="st5" v:langID="1040"><v:paragraph/><v:tabList/>content model</text>		</g>
		<g id="shape8-47" v:mID="8" v:groupContext="shape" transform="translate(233.303,-2.13732)">
			<title>Foglio.8</title>
			<rect x="0" y="157.346" width="119.041" height="70.8661" class="st2"/>
		</g>
		<g id="shape9-49" v:mID="9" v:groupContext="shape" transform="translate(254.135,-7.80661)">
			<title>Foglio.9</title>
			<rect x="0" y="193.791" width="89.2807" height="34.4207" class="st2"/>
		</g>
		<g id="shape11-51" v:mID="11" v:groupContext="shape" transform="translate(236.123,-52.756)">
			<title>Foglio.11</title>
			<desc>class C</desc>
			<v:textBlock v:margins="rect(4,4,4,4)" v:tabSpace="42.5197"/>
			<v:textRect cx="52.4409" cy="219.303" width="104.89" height="17.8178"/>
			<rect x="0" y="210.394" width="104.882" height="17.8178" class="st4"/>
			<text x="4" y="221.7" class="st5" v:langID="1040"><v:paragraph/><v:tabList/>class C</text>		</g>
		<g id="shape12-54" v:mID="12" v:groupContext="shape" transform="translate(253.131,-24.4095)">
			<title>Foglio.12</title>
			<desc>PropertySet</desc>
			<v:textBlock v:margins="rect(4,4,4,4)" v:tabSpace="42.5197"/>
			<v:textRect cx="31.1811" cy="219.303" width="62.37" height="17.8178"/>
			<rect x="0" y="210.394" width="62.3622" height="17.8178" class="st4"/>
			<text x="4" y="221.7" class="st5" v:langID="1040"><v:paragraph/><v:tabList/>PropertySet</text>		</g>
		<g id="shape13-57" v:mID="13" v:groupContext="shape" transform="translate(253.131,434.648) rotate(180)">
			<title>Foglio.13</title>
			<path d="M0 228.21 L110.55 228.21" class="st6"/>
		</g>
		<g id="shape14-60" v:mID="14" v:groupContext="shape" transform="translate(471.705,203.681) rotate(90)">
			<title>Foglio.14</title>
			<path d="M5.67 228.21 L0 228.21 L2.83 218.57 L5.67 228.21 Z" class="st7"/>
		</g>
		<g id="shape15-62" v:mID="15" v:groupContext="shape" transform="translate(184.972,-22.5873)">
			<title>Foglio.15</title>
			<desc>derive</desc>
			<v:textBlock v:margins="rect(4,4,4,4)" v:tabSpace="42.5197"/>
			<v:textRect cx="19.9701" cy="219.303" width="39.95" height="17.8178"/>
			<rect x="0" y="210.394" width="39.9402" height="17.8178" class="st4"/>
			<text x="4" y="221.7" class="st8" v:langID="1040"><v:paragraph/><v:tabList/>derive</text>		</g>
		<g id="shape4-65" v:mID="4" v:groupContext="shape" transform="translate(-130.395,310.368) rotate(-119.168)">
			<title>Foglio.4</title>
			<path d="M0 228.21 A49.3526 83.9946 0 0 1 69.8 228.21" class="st9"/>
		</g>
		<g id="shape10-68" v:mID="10" v:groupContext="shape" transform="translate(0.72,-38.9877)">
			<title>Foglio.10</title>
			<desc>refs</desc>
			<v:textBlock v:margins="rect(4,4,4,4)" v:tabSpace="42.5197"/>
			<v:textRect cx="19.9701" cy="219.303" width="39.95" height="17.8178"/>
			<rect x="0" y="210.394" width="39.9402" height="17.8178" class="st4"/>
			<text x="4" y="221.7" class="st8" v:langID="1040"><v:paragraph/><v:tabList/>refs</text>		</g>
		<g id="shape16-71" v:mID="16" v:groupContext="shape" transform="translate(34.8633,-75.8381)">
			<title>Foglio.16</title>
			<rect x="0" y="180.023" width="113.386" height="48.189" rx="11.3386" ry="11.3386" class="st2"/>
		</g>
		<g id="shape17-73" v:mID="17" v:groupContext="shape" transform="translate(68.8791,-81.5074)">
			<title>Foglio.17</title>
			<path d="M0 228.21 L73.7 228.21 L73.7 211.2 L0 211.2 L0 228.21 Z" class="st3"/>
		</g>
		<g id="shape18-75" v:mID="18" v:groupContext="shape" transform="translate(34.8633,-106.209)">
			<title>Foglio.18</title>
			<desc>Model Group Foo</desc>
			<v:textBlock v:margins="rect(4,4,4,4)" v:tabSpace="42.5197"/>
			<v:textRect cx="56.6929" cy="219.303" width="113.39" height="17.8178"/>
			<rect x="0" y="210.394" width="113.386" height="17.8178" class="st4"/>
			<text x="4" y="221.7" class="st5" v:langID="1040"><v:paragraph/><v:tabList/>Model Group Foo</text>		</g>
		<g id="shape19-78" v:mID="19" v:groupContext="shape" transform="translate(68.8791,-80.6975)">
			<title>Foglio.19</title>
			<desc>content model</desc>
			<v:textBlock v:margins="rect(4,4,4,4)" v:tabSpace="42.5197"/>
			<v:textRect cx="31.1811" cy="219.303" width="62.37" height="17.8178"/>
			<rect x="0" y="210.394" width="62.3622" height="17.8178" class="st4"/>
			<text x="4" y="221.7" class="st5" v:langID="1040"><v:paragraph/><v:tabList/>content model</text>		</g>
		<g id="shape32-81" v:mID="32" v:groupContext="shape" transform="translate(141.599,-52.0036) rotate(30)">
			<title>Foglio.32</title>
			<path d="M5.67 228.21 L0 228.21 L2.83 218.57 L5.67 228.21 Z" class="st7"/>
		</g>
		<g id="shape33-83" v:mID="33" v:groupContext="shape" transform="translate(-146.498,104.185) rotate(-90)">
			<title>Foglio.33</title>
			<path d="M0 228.21 L23.28 228.21" class="st9"/>
		</g>
		<g id="shape34-86" v:mID="34" v:groupContext="shape" transform="translate(84.4696,322.758) rotate(180)">
			<title>Foglio.34</title>
			<path d="M5.67 228.21 L0 228.21 L2.83 218.57 L5.67 228.21 Z" class="st7"/>
		</g>
		<g id="shape35-88" v:mID="35" v:groupContext="shape" transform="translate(85.7594,-126.457)">
			<title>Foglio.35</title>
			<desc>refs</desc>
			<v:textBlock v:margins="rect(4,4,4,4)" v:tabSpace="42.5197"/>
			<v:textRect cx="19.9701" cy="219.303" width="39.95" height="17.8178"/>
			<rect x="0" y="210.394" width="39.9402" height="17.8178" class="st4"/>
			<text x="4" y="221.7" class="st8" v:langID="1040"><v:paragraph/><v:tabList/>refs</text>		</g>
		<g id="shape36-91" v:mID="36" v:groupContext="shape" transform="translate(347.003,294.904) rotate(155.711)">
			<title>Foglio.36</title>
			<path d="M0 228.21 L121.29 228.21" class="st6"/>
		</g>
		<g id="shape37-94" v:mID="37" v:groupContext="shape" transform="translate(449.867,-8.02989) rotate(65)">
			<title>Foglio.37</title>
			<path d="M5.67 228.21 L0 228.21 L2.83 218.57 L5.67 228.21 Z" class="st7"/>
		</g>
		<g id="shape38-96" v:mID="38" v:groupContext="shape" transform="translate(182.01,-71.1812)">
			<title>Foglio.38</title>
			<desc>derive</desc>
			<v:textBlock v:margins="rect(4,4,4,4)" v:tabSpace="42.5197"/>
			<v:textRect cx="19.9701" cy="219.303" width="39.95" height="17.8178"/>
			<rect x="0" y="210.394" width="39.9402" height="17.8178" class="st4"/>
			<text x="4" y="221.7" class="st8" v:langID="1040"><v:paragraph/><v:tabList/>derive</text>		</g>
		<g id="shape39-99" v:mID="39" v:groupContext="shape" transform="translate(46.9459,355.328) rotate(24.7751) scale(1,-1)">
			<title>Foglio.39</title>
			<path d="M0 228.21 L121.76 228.21" class="st6"/>
		</g>
		<g id="shape40-102" v:mID="40" v:groupContext="shape" transform="translate(452.011,288.869) rotate(115)">
			<title>Foglio.40</title>
			<path d="M5.67 228.21 L0 228.21 L2.83 218.57 L5.67 228.21 Z" class="st7"/>
		</g>
		<g id="shape41-104" v:mID="41" v:groupContext="shape" transform="translate(253.131,-135.973)">
			<title>Foglio.41</title>
			<desc>FooBar getBar();</desc>
			<v:textBlock v:margins="rect(4,4,4,4)" v:tabSpace="42.5197"/>
			<v:textRect cx="34.7244" cy="219.303" width="69.45" height="17.8178"/>
			<rect x="0" y="210.394" width="69.4488" height="17.8178" class="st4"/>
			<text x="4" y="221.7" class="st10" v:langID="1040"><v:paragraph/><v:tabList/>FooBar<tspan class="st11"> </tspan><tspan
						class="st11">getBar</tspan><tspan class="st11">()</tspan><tspan class="st11">;</tspan></text>		</g>
		<g id="shape42-111" v:mID="42" v:groupContext="shape" transform="translate(253.131,-5.98434)">
			<title>Foglio.42</title>
			<desc>FooBar getBar();</desc>
			<v:textBlock v:margins="rect(4,4,4,4)" v:tabSpace="42.5197"/>
			<v:textRect cx="34.7244" cy="219.303" width="69.45" height="17.8178"/>
			<rect x="0" y="210.394" width="69.4488" height="17.8178" class="st4"/>
			<text x="4" y="221.7" class="st10" v:langID="1040"><v:paragraph/><v:tabList/>FooBar<tspan class="st11"> </tspan><tspan
						class="st11">getBar</tspan><tspan class="st11">()</tspan><tspan class="st11">;</tspan></text>		</g>
		<g id="shape43-118" v:mID="43" v:groupContext="shape" transform="translate(233.303,-80.0901)">
			<title>Foglio.43</title>
			<rect x="0" y="184.275" width="119.041" height="43.937" class="st2"/>
		</g>
		<g id="shape44-120" v:mID="44" v:groupContext="shape" transform="translate(236.407,-111.298)">
			<title>Foglio.44</title>
			<desc>class FooBar</desc>
			<v:textBlock v:margins="rect(4,4,4,4)" v:tabSpace="42.5197"/>
			<v:textRect cx="52.4409" cy="222.688" width="104.89" height="11.047"/>
			<rect x="0" y="217.165" width="104.882" height="11.047" class="st4"/>
			<text x="4" y="225.09" class="st5" v:langID="1040"><v:paragraph/><v:tabList/>class <tspan class="st12">FooBar</tspan></text>		</g>
		<g id="shape45-124" v:mID="45" v:groupContext="shape" transform="translate(233.289,368.317) rotate(180)">
			<title>Foglio.45</title>
			<path d="M0 228.21 L90.43 228.21" class="st6"/>
		</g>
		<g id="shape46-127" v:mID="46" v:groupContext="shape" transform="translate(451.295,137.35) rotate(90)">
			<title>Foglio.46</title>
			<path d="M5.67 228.21 L0 228.21 L2.83 218.57 L5.67 228.21 Z" class="st7"/>
		</g>
	</g>
</svg>
