<?xml version="1.0" encoding="UTF-8" standalone="no"?>
<!DOCTYPE svg PUBLIC "-//W3C//DTD SVG 1.0//EN" "http://www.w3.org/TR/2001/REC-SVG-20010904/DTD/svg10.dtd">
<!-- Generato da Microsoft Visio 11.0, SVG Export, v1.0 xmlb-23.svg Pagina 1 -->
<svg xmlns="http://www.w3.org/2000/svg" xmlns:v="http://schemas.microsoft.com/visio/2003/SVGExtensions/" width="6.00425in"
		height="4.13417in" viewBox="0 0 432.306 297.66" xml:space="preserve" color-interpolation-filters="sRGB" class="st10">
	<v:documentProperties v:langID="1040" v:metric="true" v:viewMarkup="false">
		<v:userDefs>
			<v:ud v:nameU="MBSAAddinOutlineVisible" v:prompt="" v:val="VT0(1):26"/>
		</v:userDefs>
	</v:documentProperties>

	<style type="text/css">
	<![CDATA[
		.st1 {fill:#ffffff;stroke:none;stroke-linecap:round;stroke-linejoin:round;stroke-width:0.72}
		.st2 {fill:#ffffff;stroke:#000000;stroke-linecap:round;stroke-linejoin:round;stroke-width:0.72}
		.st3 {fill:none;stroke:none;stroke-linecap:round;stroke-linejoin:round;stroke-width:0.72}
		.st4 {fill:#000000;font-family:Arial;font-size:0.666664em}
		.st5 {font-size:1em}
		.st6 {fill:#000000;font-family:Arial;font-size:0.833336em;font-style:italic;font-weight:bold}
		.st7 {fill:#000000;font-family:Arial;font-size:0.666664em;font-style:italic;font-weight:bold}
		.st8 {stroke:#000000;stroke-linecap:round;stroke-linejoin:round;stroke-width:0.72}
		.st9 {fill:#000000;stroke:#000000;stroke-linecap:round;stroke-linejoin:round;stroke-width:0.72}
		.st10 {fill:none;fill-rule:evenodd;font-size:12;overflow:visible;stroke-linecap:square;stroke-miterlimit:3}
	]]>
	</style>

	<g v:mID="0" v:index="1" v:groupContext="foregroundPage">
		<title>Pagina 1</title>
		<v:pageProperties v:drawingScale="0.0393701" v:pageScale="0.0393701" v:drawingUnits="24" v:shadowOffsetX="8.50394"
				v:shadowOffsetY="-8.50394"/>
		<g id="shape139-1" v:mID="139" v:groupContext="shape" transform="translate(0.72,-0.72)">
			<title>Foglio.139</title>
			<rect x="0" y="1.44" width="430.866" height="296.22" class="st1"/>
		</g>
		<g id="shape146-3" v:mID="146" v:groupContext="shape" transform="translate(6.38929,-228.909)">
			<title>Foglio.146</title>
			<rect x="0" y="235.298" width="85.0394" height="62.3622" class="st2"/>
		</g>
		<g id="shape171-5" v:mID="171" v:groupContext="shape" transform="translate(12.0586,-241.26)">
			<title>Foglio.171</title>
			<desc>Original XML Infoset</desc>
			<v:textBlock v:margins="rect(4,4,4,4)" v:tabSpace="42.5197"/>
			<v:textRect cx="28.2704" cy="278.83" width="56.55" height="37.6603"/>
			<rect x="0" y="260" width="56.5409" height="37.6603" class="st3"/>
			<text x="14.49" y="271.63" class="st4" v:langID="1040"><v:paragraph v:horizAlign="1"/><v:tabList/>Original <v:newlineChar/><tspan
						x="20.05" dy="1.2em" class="st5">XML <v:newlineChar/></tspan><tspan x="16.26" dy="1.2em" class="st5">Infoset</tspan></text>		</g>
		<g id="shape174-10" v:mID="174" v:groupContext="shape" transform="translate(332.374,-228.909)">
			<title>Foglio.174</title>
			<rect x="0" y="235.298" width="85.0394" height="62.3622" class="st2"/>
		</g>
		<g id="shape175-12" v:mID="175" v:groupContext="shape" transform="translate(338.043,-241.26)">
			<title>Foglio.175</title>
			<desc>Reconstituted XML Infoset</desc>
			<v:textBlock v:margins="rect(4,4,4,4)" v:tabSpace="42.5197"/>
			<v:textRect cx="29.6878" cy="278.83" width="59.38" height="37.6603"/>
			<rect x="0" y="260" width="59.3755" height="37.6603" class="st3"/>
			<text x="5.23" y="271.63" class="st4" v:langID="1040"><v:paragraph v:horizAlign="1"/><v:tabList/>Reconstituted <v:newlineChar/><tspan
						x="21.46" dy="1.2em" class="st5">XML <v:newlineChar/></tspan><tspan x="17.68" dy="1.2em" class="st5">Infoset</tspan></text>		</g>
		<g id="shape176-17" v:mID="176" v:groupContext="shape" transform="translate(148.122,-7.80661)">
			<title>Foglio.176</title>
			<rect x="0" y="28.3691" width="127.559" height="269.291" class="st2"/>
		</g>
		<g id="shape1-19" v:mID="1" v:groupContext="shape" transform="translate(133.948,-243.507)">
			<title>Foglio.1</title>
			<desc>MIME-based Package</desc>
			<v:textBlock v:margins="rect(4,4,4,4)" v:tabSpace="42.5197"/>
			<v:textRect cx="70.8661" cy="281.22" width="141.74" height="32.8819"/>
			<rect x="0" y="264.779" width="141.732" height="32.8819" class="st3"/>
			<text x="41.7" y="278.22" class="st6" v:langID="1040"><v:paragraph v:horizAlign="1"/><v:tabList/>MIME-based<v:newlineChar/><tspan
						x="50.57" dy="1.2em" class="st5">Package</tspan></text>		</g>
		<g id="shape2-23" v:mID="2" v:groupContext="shape" transform="translate(162.295,-149.539)">
			<title>Foglio.2</title>
			<rect x="0" y="209.786" width="102.047" height="87.874" class="st2"/>
		</g>
		<g id="shape3-25" v:mID="3" v:groupContext="shape" transform="translate(166.074,-212.297)">
			<title>Foglio.3</title>
			<desc>Document (Root Part)</desc>
			<v:textBlock v:margins="rect(4,4,4,4)" v:tabSpace="42.5197"/>
			<v:textRect cx="37.6939" cy="286.718" width="75.39" height="21.8857"/>
			<rect x="0" y="275.775" width="75.3878" height="21.8857" class="st3"/>
			<text x="19.46" y="284.32" class="st4" v:langID="1040"><v:paragraph v:horizAlign="1"/><v:tabList/>Document<v:newlineChar/><tspan
						x="18.13" dy="1.2em" class="st5">(</tspan>Root Part)</text>		</g>
		<g id="shape4-29" v:mID="4" v:groupContext="shape" transform="translate(34.7357,-112.689)">
			<title>Foglio.4</title>
			<rect x="0" y="235.298" width="85.0394" height="62.3622" rx="31.1811" ry="31.1811" class="st2"/>
		</g>
		<g id="shape5-31" v:mID="5" v:groupContext="shape" transform="translate(33.8922,-135.366)">
			<title>Foglio.5</title>
			<desc>marshal</desc>
			<v:textBlock v:margins="rect(4,4,4,4)" v:tabSpace="42.5197"/>
			<v:textRect cx="37.6939" cy="286.718" width="75.39" height="21.8857"/>
			<rect x="0" y="275.775" width="75.3878" height="21.8857" class="st3"/>
			<text x="23.47" y="289.12" class="st4" v:langID="1040"><v:paragraph v:horizAlign="1"/><v:tabList/>marshal</text>		</g>
		<g id="shape6-34" v:mID="6" v:groupContext="shape" transform="translate(304.027,-112.689)">
			<title>Foglio.6</title>
			<rect x="0" y="235.298" width="85.0394" height="62.3622" rx="31.1811" ry="31.1811" class="st2"/>
		</g>
		<g id="shape7-36" v:mID="7" v:groupContext="shape" transform="translate(303.184,-135.366)">
			<title>Foglio.7</title>
			<desc>unmarshal</desc>
			<v:textBlock v:margins="rect(4,4,4,4)" v:tabSpace="42.5197"/>
			<v:textRect cx="37.6939" cy="286.718" width="75.39" height="21.8857"/>
			<rect x="0" y="275.775" width="75.3878" height="21.8857" class="st3"/>
			<text x="19.02" y="289.12" class="st4" v:langID="1040"><v:paragraph v:horizAlign="1"/><v:tabList/>unmarshal</text>		</g>
		<g id="shape8-39" v:mID="8" v:groupContext="shape" transform="translate(167.964,-152.629)">
			<title>Foglio.8</title>
			<rect x="0" y="280.908" width="24.3185" height="16.7528" class="st2"/>
		</g>
		<g id="shape9-41" v:mID="9" v:groupContext="shape" transform="translate(166.865,-152.769)">
			<title>Foglio.9</title>
			<desc>cid</desc>
			<v:textBlock v:margins="rect(4,4,4,4)" v:tabSpace="42.5197"/>
			<v:textRect cx="11.8879" cy="289.354" width="23.78" height="16.6121"/>
			<rect x="0" y="281.048" width="23.7758" height="16.6121" class="st3"/>
			<text x="6.77" y="291.75" class="st4" v:langID="1040"><v:paragraph v:horizAlign="1"/><v:tabList/>cid</text>		</g>
		<g id="shape10-44" v:mID="10" v:groupContext="shape" transform="translate(201.756,-152.629)">
			<title>Foglio.10</title>
			<rect x="0" y="280.908" width="24.3185" height="16.7528" class="st2"/>
		</g>
		<g id="shape11-46" v:mID="11" v:groupContext="shape" transform="translate(200.657,-152.769)">
			<title>Foglio.11</title>
			<desc>cid</desc>
			<v:textBlock v:margins="rect(4,4,4,4)" v:tabSpace="42.5197"/>
			<v:textRect cx="11.8879" cy="289.354" width="23.78" height="16.6121"/>
			<rect x="0" y="281.048" width="23.7758" height="16.6121" class="st3"/>
			<text x="6.77" y="291.75" class="st4" v:langID="1040"><v:paragraph v:horizAlign="1"/><v:tabList/>cid</text>		</g>
		<g id="shape12-49" v:mID="12" v:groupContext="shape" transform="translate(235.724,-152.629)">
			<title>Foglio.12</title>
			<rect x="0" y="280.908" width="24.3185" height="16.7528" class="st2"/>
		</g>
		<g id="shape13-51" v:mID="13" v:groupContext="shape" transform="translate(234.626,-152.769)">
			<title>Foglio.13</title>
			<desc>cid</desc>
			<v:textBlock v:margins="rect(4,4,4,4)" v:tabSpace="42.5197"/>
			<v:textRect cx="11.8879" cy="289.354" width="23.78" height="16.6121"/>
			<rect x="0" y="281.048" width="23.7758" height="16.6121" class="st3"/>
			<text x="6.77" y="291.75" class="st4" v:langID="1040"><v:paragraph v:horizAlign="1"/><v:tabList/>cid</text>		</g>
		<g id="shape14-54" v:mID="14" v:groupContext="shape" transform="translate(182.137,-21.9798)">
			<title>Foglio.14</title>
			<rect x="0" y="209.786" width="77.2441" height="87.874" class="st2"/>
		</g>
		<g id="shape15-56" v:mID="15" v:groupContext="shape" transform="translate(174.342,-31.9011)">
			<title>Foglio.15</title>
			<rect x="0" y="209.786" width="77.2441" height="87.874" class="st2"/>
		</g>
		<g id="shape16-58" v:mID="16" v:groupContext="shape" transform="translate(165.129,-41.8224)">
			<title>Foglio.16</title>
			<rect x="0" y="209.786" width="77.2441" height="87.874" class="st2"/>
		</g>
		<g id="shape17-60" v:mID="17" v:groupContext="shape" transform="translate(159.46,-107.415)">
			<title>Foglio.17</title>
			<desc>MIME PART</desc>
			<v:textBlock v:margins="rect(4,4,4,4)" v:tabSpace="42.5197"/>
			<v:textRect cx="37.6939" cy="286.718" width="75.39" height="21.8857"/>
			<rect x="0" y="275.775" width="75.3878" height="21.8857" class="st3"/>
			<text x="15.47" y="289.12" class="st4" v:langID="1040"><v:paragraph v:horizAlign="1"/><v:tabList/>MIME PART</text>		</g>
		<g id="shape18-63" v:mID="18" v:groupContext="shape" transform="translate(165.129,-82.1583)">
			<title>Foglio.18</title>
			<desc>Binary Content</desc>
			<v:textBlock v:margins="rect(4,4,4,4)" v:tabSpace="42.5197"/>
			<v:textRect cx="34.0157" cy="286.718" width="68.04" height="21.8857"/>
			<rect x="0" y="275.775" width="68.0315" height="21.8857" class="st3"/>
			<text x="21.57" y="284.32" class="st7" v:langID="1040"><v:paragraph v:horizAlign="1"/><v:tabList/>Binary<v:newlineChar/><tspan
						x="18.91" dy="1.2em" class="st5">Content</tspan></text>		</g>
		<g id="shape19-67" v:mID="19" v:groupContext="shape" transform="translate(340.906,30.9877) rotate(71.8675) scale(-1,1)">
			<title>Foglio.19</title>
			<path d="M0 297.66 L56.62 297.66" class="st8"/>
		</g>
		<g id="shape20-70" v:mID="20" v:groupContext="shape" transform="translate(153.826,394.71) rotate(-20) scale(1,-1)">
			<title>Foglio.20</title>
			<path d="M5.67 297.66 L0 297.66 L2.83 288.02 L5.67 297.66 Z" class="st9"/>
		</g>
		<g id="shape21-72" v:mID="21" v:groupContext="shape" transform="translate(20.5625,-41.8224)">
			<title>Foglio.21</title>
			<desc>Extraction: AttachmentMarshaller.add*Attachment(data)</desc>
			<v:textBlock v:margins="rect(4,4,4,4)" v:tabSpace="42.5197"/>
			<v:textRect cx="45.3163" cy="283.082" width="90.64" height="29.1564"/>
			<rect x="0" y="268.504" width="90.6326" height="29.1564" class="st3"/>
			<text x="4" y="275.88" class="st4" v:langID="1040"><v:paragraph/><v:tabList/>Extraction:<v:newlineChar/><tspan x="4"
						dy="1.2em" class="st5">AttachmentMarshaller</tspan>.<tspan x="4" dy="1.2em" class="st5">add</tspan>*Attachment(data)</text>		</g>
		<g id="shape22-77" v:mID="22" v:groupContext="shape" transform="translate(348.242,20.5697) rotate(38.6598) scale(-1,1)">
			<title>Foglio.22</title>
			<path d="M0 297.66 L108.9 297.66" class="st8"/>
		</g>
		<g id="shape23-80" v:mID="23" v:groupContext="shape" transform="translate(381.394,440.742) rotate(-50) scale(1,-1)">
			<title>Foglio.23</title>
			<path d="M5.67 297.66 L0 297.66 L2.83 288.02 L5.67 297.66 Z" class="st9"/>
		</g>
		<g id="shape24-82" v:mID="24" v:groupContext="shape" transform="translate(124.239,-62.935) rotate(-63.1325) scale(-1,1)">
			<title>Foglio.24</title>
			<path d="M0 297.66 L56.62 297.66" class="st8"/>
		</g>
		<g id="shape25-85" v:mID="25" v:groupContext="shape" transform="translate(513.715,-187.84) rotate(25) scale(-1,1)">
			<title>Foglio.25</title>
			<path d="M5.67 297.66 L0 297.66 L2.83 288.02 L5.67 297.66 Z" class="st9"/>
		</g>
		<g id="shape26-87" v:mID="26" v:groupContext="shape" transform="translate(73.0092,20.5697) rotate(-38.6598)">
			<title>Foglio.26</title>
			<path d="M0 297.66 L108.9 297.66" class="st8"/>
		</g>
		<g id="shape27-90" v:mID="27" v:groupContext="shape" transform="translate(39.8567,440.742) rotate(-130)">
			<title>Foglio.27</title>
			<path d="M5.67 297.66 L0 297.66 L2.83 288.02 L5.67 297.66 Z" class="st9"/>
		</g>
		<g id="shape28-92" v:mID="28" v:groupContext="shape" transform="translate(149.249,-145.463) rotate(0.217013) scale(-1,1)">
			<title>Foglio.28</title>
			<path d="M0 297.66 L28.39 297.66" class="st8"/>
		</g>
		<g id="shape29-95" v:mID="29" v:groupContext="shape" transform="translate(435.566,145.858) rotate(88.2) scale(-1,1)">
			<title>Foglio.29</title>
			<path d="M5.67 297.66 L0 297.66 L2.83 288.02 L5.67 297.66 Z" class="st9"/>
		</g>
		<g id="shape30-97" v:mID="30" v:groupContext="shape" transform="translate(305.201,-144.803) rotate(0.217013) scale(-1,1)">
			<title>Foglio.30</title>
			<path d="M0 297.66 L28.39 297.66" class="st8"/>
		</g>
		<g id="shape31-100" v:mID="31" v:groupContext="shape" transform="translate(591.518,146.518) rotate(88.2) scale(-1,1)">
			<title>Foglio.31</title>
			<path d="M5.67 297.66 L0 297.66 L2.83 288.02 L5.67 297.66 Z" class="st9"/>
		</g>
		<g id="shape33-102" v:mID="33" v:groupContext="shape" transform="translate(31.0804,-87.3043)">
			<title>Foglio.33</title>
			<rect x="0" y="280.908" width="88.6947" height="16.7528" class="st1"/>
		</g>
		<g id="shape32-104" v:mID="32" v:groupContext="shape" transform="translate(32.0532,-87.1767)">
			<title>Foglio.32</title>
			<desc>For each binary data</desc>
			<v:textBlock v:margins="rect(4,4,4,4)" v:tabSpace="42.5197"/>
			<v:textRect cx="41.0263" cy="287.739" width="82.06" height="19.8425"/>
			<rect x="0" y="277.818" width="82.0527" height="19.8425" class="st3"/>
			<text x="4.34" y="290.14" class="st4" v:langID="1040"><v:paragraph v:horizAlign="1"/><v:tabList/>For each binary data</text>		</g>
		<g id="shape34-107" v:mID="34" v:groupContext="shape" transform="translate(289.854,-87.3043)">
			<title>Foglio.34</title>
			<rect x="0" y="280.908" width="88.6947" height="16.7528" class="st1"/>
		</g>
		<g id="shape35-109" v:mID="35" v:groupContext="shape" transform="translate(290.827,-87.1767)">
			<title>Foglio.35</title>
			<desc>For each content-id</desc>
			<v:textBlock v:margins="rect(4,4,4,4)" v:tabSpace="42.5197"/>
			<v:textRect cx="41.0263" cy="287.739" width="82.06" height="19.8425"/>
			<rect x="0" y="277.818" width="82.0527" height="19.8425" class="st3"/>
			<text x="6.56" y="290.14" class="st4" v:langID="1040"><v:paragraph v:horizAlign="1"/><v:tabList/>For each content-id</text>		</g>
		<g id="shape36-112" v:mID="36" v:groupContext="shape" transform="translate(455.629,247.117) rotate(-74.5785) scale(1,-1)">
			<title>Foglio.36</title>
			<path d="M0 297.66 L23.93 297.66" class="st8"/>
		</g>
		<g id="shape37-115" v:mID="37" v:groupContext="shape" transform="translate(91.5874,445.075) rotate(15) scale(1,-1)">
			<title>Foglio.37</title>
			<path d="M5.67 297.66 L0 297.66 L2.83 288.02 L5.67 297.66 Z" class="st9"/>
		</g>
		<g id="shape38-117" v:mID="38" v:groupContext="shape" transform="translate(438.279,-53.7856) rotate(38.8943) scale(-1,1)">
			<title>Foglio.38</title>
			<path d="M0 297.66 L52.55 297.66" class="st8"/>
		</g>
		<g id="shape39-120" v:mID="39" v:groupContext="shape" transform="translate(469.552,364.559) rotate(-50) scale(1,-1)">
			<title>Foglio.39</title>
			<path d="M5.67 297.66 L0 297.66 L2.83 288.02 L5.67 297.66 Z" class="st9"/>
		</g>
		<g id="shape40-122" v:mID="40" v:groupContext="shape" transform="translate(-41.9988,188.981) rotate(-90.217)">
			<title>Foglio.40</title>
			<path d="M0 297.66 L42.96 297.66" class="st8"/>
		</g>
		<g id="shape41-125" v:mID="41" v:groupContext="shape" transform="translate(249.323,475.535) rotate(-178.2)">
			<title>Foglio.41</title>
			<path d="M5.67 297.66 L0 297.66 L2.83 288.02 L5.67 297.66 Z" class="st9"/>
		</g>
		<g id="shape42-127" v:mID="42" v:groupContext="shape" transform="translate(295.523,-41.4174)">
			<title>Foglio.42</title>
			<desc>Reconstitute: AttachmentUnmarshaller.getAttachmentAs*(cid)</desc>
			<v:textBlock v:margins="rect(4,4,4,4)" v:tabSpace="42.5197"/>
			<v:textRect cx="51.0236" cy="283.082" width="102.05" height="29.1564"/>
			<rect x="0" y="268.504" width="102.047" height="29.1564" class="st3"/>
			<text x="4" y="275.88" class="st4" v:langID="1040"><v:paragraph/><v:tabList/>Reconstitute:<v:newlineChar/><tspan x="4"
						dy="1.2em" class="st5">AttachmentUnmarshaller</tspan>.<tspan x="4" dy="1.2em" class="st5">getAttachmentAs</tspan>*(cid)</text>		</g>
	</g>
</svg>
