<?xml version="1.0" encoding="UTF-8" standalone="no"?>
<!DOCTYPE svg PUBLIC "-//W3C//DTD SVG 1.0//EN" "http://www.w3.org/TR/2001/REC-SVG-20010904/DTD/svg10.dtd">
<!-- Generato da Microsoft Visio 11.0, SVG Export, v1.0 xmlb-12.svg Pagina 1 -->
<svg xmlns="http://www.w3.org/2000/svg" xmlns:v="http://schemas.microsoft.com/visio/2003/SVGExtensions/" width="5.33496in"
		height="3.99638in" viewBox="0 0 384.117 287.739" xml:space="preserve" color-interpolation-filters="sRGB" class="st11">
	<v:documentProperties v:langID="1040" v:metric="true" v:viewMarkup="false">
		<v:userDefs>
			<v:ud v:nameU="MBSAAddinOutlineVisible" v:prompt="" v:val="VT0(1):26"/>
		</v:userDefs>
	</v:documentProperties>

	<style type="text/css">
	<![CDATA[
		.st1 {fill:#ffffff;stroke:none;stroke-linecap:round;stroke-linejoin:round;stroke-width:0.72}
		.st2 {fill:#ffffff;stroke:#000000;stroke-linecap:round;stroke-linejoin:round;stroke-width:0.72}
		.st3 {fill:none;stroke:none;stroke-linecap:round;stroke-linejoin:round;stroke-width:0.72}
		.st4 {fill:#000000;font-family:Arial;font-size:0.666664em}
		.st5 {fill:#000000;font-family:Arial;font-size:0.666664em;font-weight:bold}
		.st6 {font-size:1em}
		.st7 {stroke:#000000;stroke-linecap:round;stroke-linejoin:round;stroke-width:0.72}
		.st8 {fill:#000000;stroke:#000000;stroke-linecap:round;stroke-linejoin:round;stroke-width:0.72}
		.st9 {fill:#ffffff;stroke:#000000;stroke-dasharray:0.72,1.44;stroke-linecap:round;stroke-linejoin:round;stroke-width:0.72}
		.st10 {font-size:1em;font-weight:bold}
		.st11 {fill:none;fill-rule:evenodd;font-size:12;overflow:visible;stroke-linecap:square;stroke-miterlimit:3}
	]]>
	</style>

	<g v:mID="0" v:index="1" v:groupContext="foregroundPage">
		<title>Pagina 1</title>
		<v:pageProperties v:drawingScale="0.0393701" v:pageScale="0.0393701" v:drawingUnits="24" v:shadowOffsetX="8.50394"
				v:shadowOffsetY="-8.50394"/>
		<g id="shape1-1" v:mID="1" v:groupContext="shape" transform="translate(0.72,-0.72)">
			<title>Foglio.1</title>
			<rect x="0" y="1.44" width="382.677" height="286.299" class="st1"/>
		</g>
		<g id="shape6-3" v:mID="6" v:groupContext="shape" transform="translate(131.114,-116.94)">
			<title>Foglio.6</title>
			<rect x="0" y="270.731" width="116.22" height="17.0079" class="st2"/>
		</g>
		<g id="shape7-5" v:mID="7" v:groupContext="shape" transform="translate(133.003,-116.131)">
			<title>Foglio.7</title>
			<desc>ConstraintPredicate</desc>
			<v:textBlock v:margins="rect(4,4,4,4)" v:tabSpace="42.5197"/>
			<v:textRect cx="42.9921" cy="278.83" width="85.99" height="17.8178"/>
			<rect x="0" y="269.921" width="85.9843" height="17.8178" class="st3"/>
			<text x="7.86" y="281.23" class="st4" v:langID="1040"><v:paragraph v:horizAlign="1"/><v:tabList/>ConstraintPredicate</text>		</g>
		<g id="shape8-8" v:mID="8" v:groupContext="shape" transform="translate(9.64913,-77.2554)">
			<title>Foglio.8</title>
			<rect x="0" y="260.038" width="109.134" height="27.7017" class="st2"/>
		</g>
		<g id="shape9-10" v:mID="9" v:groupContext="shape" transform="translate(14.1846,-81.1728)">
			<title>Foglio.9</title>
			<desc>javax.xml.bind JAXBElement</desc>
			<v:textBlock v:margins="rect(4,4,4,4)" v:tabSpace="42.5197"/>
			<v:textRect cx="39.685" cy="276.942" width="79.38" height="21.5944"/>
			<rect x="0" y="266.145" width="79.3701" height="21.5944" class="st3"/>
			<text x="4" y="274.54" class="st5" v:langID="1040"><v:paragraph/><v:tabList/>javax.xml.bind<v:newlineChar/><tspan x="4"
						dy="1.2em" class="st6">JAXBElement</tspan></text>		</g>
		<g id="shape12-14" v:mID="12" v:groupContext="shape" transform="translate(29.0665,-185.458)">
			<title>Foglio.12</title>
			<rect x="0" y="279.721" width="189.921" height="8.018" class="st2"/>
		</g>
		<g id="shape14-16" v:mID="14" v:groupContext="shape" transform="translate(29.0665,-159.46)">
			<title>Foglio.14</title>
			<rect x="0" y="261.418" width="189.921" height="26.3217" class="st2"/>
		</g>
		<g id="shape15-18" v:mID="15" v:groupContext="shape" transform="translate(29.0665,-159.055)">
			<title>Foglio.15</title>
			<desc>elementFactory(T): JAXBElement&#60;T&#62;</desc>
			<v:textBlock v:margins="rect(4,4,4,4)" v:tabSpace="42.5197"/>
			<v:textRect cx="78.9177" cy="280.45" width="157.84" height="14.5782"/>
			<rect x="0" y="273.161" width="157.835" height="14.5782" class="st3"/>
			<text x="4" y="282.85" class="st4" v:langID="1040"><v:paragraph/><v:tabList/>elementFactory(T): JAXBElement&#60;T&#62;</text>		</g>
		<g id="shape20-21" v:mID="20" v:groupContext="shape" transform="translate(9.64913,-12.9601)">
			<title>Foglio.20</title>
			<rect x="0" y="223.96" width="109.134" height="63.7795" class="st2"/>
		</g>
		<g id="shape21-23" v:mID="21" v:groupContext="shape" transform="translate(8.79874,-59.1648)">
			<title>Foglio.21</title>
			<desc>*name : Qname</desc>
			<v:textBlock v:margins="rect(4,4,4,4)" v:tabSpace="42.5197"/>
			<v:textRect cx="52.4409" cy="279.235" width="104.89" height="17.0079"/>
			<rect x="0" y="270.731" width="104.882" height="17.0079" class="st3"/>
			<text x="4" y="281.64" class="st4" v:langID="1040"><v:paragraph/><v:tabList/>*name  : Qname</text>		</g>
		<g id="shape22-26" v:mID="22" v:groupContext="shape" transform="translate(9.64913,-52.6451)">
			<title>Foglio.22</title>
			<desc>*value : T</desc>
			<v:textBlock v:margins="rect(4,4,4,4)" v:tabSpace="42.5197"/>
			<v:textRect cx="52.4409" cy="283.487" width="104.89" height="8.50394"/>
			<rect x="0" y="279.235" width="104.882" height="8.50394" class="st3"/>
			<text x="4" y="285.89" class="st4" v:langID="1040"><v:paragraph/><v:tabList/>*value  : T</text>		</g>
		<g id="shape23-29" v:mID="23" v:groupContext="shape" transform="translate(29.0665,-170.799)">
			<title>Foglio.23</title>
			<desc>typeFactory()</desc>
			<v:textBlock v:margins="rect(4,4,4,4)" v:tabSpace="42.5197"/>
			<v:textRect cx="34.0157" cy="280.45" width="68.04" height="14.5782"/>
			<rect x="0" y="273.161" width="68.0315" height="14.5782" class="st3"/>
			<text x="4" y="282.85" class="st4" v:langID="1040"><v:paragraph/><v:tabList/>typeFactory()                </text>		</g>
		<g id="shape24-32" v:mID="24" v:groupContext="shape" transform="translate(29.0665,-193.476)">
			<title>Foglio.24</title>
			<rect x="0" y="270.731" width="189.921" height="17.0079" class="st2"/>
		</g>
		<g id="shape25-34" v:mID="25" v:groupContext="shape" transform="translate(29.0665,-194.407)">
			<title>Foglio.25</title>
			<desc>ObjectFactory</desc>
			<v:textBlock v:margins="rect(4,4,4,4)" v:tabSpace="42.5197"/>
			<v:textRect cx="85.4223" cy="279.701" width="170.85" height="16.0765"/>
			<rect x="0" y="271.663" width="170.845" height="16.0765" class="st3"/>
			<text x="58.53" y="282.1" class="st5" v:langID="1040"><v:paragraph v:horizAlign="1"/><v:tabList/>ObjectFactory</text>		</g>
		<g id="shape13-37" v:mID="13" v:groupContext="shape" transform="translate(38.5553,-257.012)">
			<title>Foglio.13</title>
			<rect x="0" y="282.839" width="89.7237" height="4.89989" class="st2"/>
		</g>
		<g id="shape26-39" v:mID="26" v:groupContext="shape" transform="translate(38.5553,-253.003)">
			<title>Foglio.26</title>
			<rect x="0" y="283.532" width="89.7237" height="4.20697" class="st2"/>
		</g>
		<g id="shape29-41" v:mID="29" v:groupContext="shape" transform="translate(38.5553,-261.912)">
			<title>Foglio.29</title>
			<rect x="0" y="270.731" width="89.7237" height="17.0079" class="st2"/>
		</g>
		<g id="shape30-43" v:mID="30" v:groupContext="shape" transform="translate(47.0752,-262.844)">
			<title>Foglio.30</title>
			<desc>EnumType</desc>
			<v:textBlock v:margins="rect(4,4,4,4)" v:tabSpace="42.5197"/>
			<v:textRect cx="33.0149" cy="279.701" width="66.03" height="16.0765"/>
			<rect x="0" y="271.663" width="66.0297" height="16.0765" class="st3"/>
			<text x="4" y="282.1" class="st5" v:langID="1040"><v:paragraph/><v:tabList/>EnumType</text>		</g>
		<g id="shape27-46" v:mID="27" v:groupContext="shape" transform="translate(188.792,-253.489)">
			<title>Foglio.27</title>
			<rect x="0" y="279.721" width="89.7237" height="8.018" class="st2"/>
		</g>
		<g id="shape28-48" v:mID="28" v:groupContext="shape" transform="translate(188.792,-246.929)">
			<title>Foglio.28</title>
			<rect x="0" y="280.855" width="89.7237" height="6.88414" class="st2"/>
		</g>
		<g id="shape31-50" v:mID="31" v:groupContext="shape" transform="translate(188.792,-261.507)">
			<title>Foglio.31</title>
			<rect x="0" y="270.731" width="89.7237" height="17.0079" class="st2"/>
		</g>
		<g id="shape32-52" v:mID="32" v:groupContext="shape" transform="translate(197.311,-262.439)">
			<title>Foglio.32</title>
			<desc>Package</desc>
			<v:textBlock v:margins="rect(4,4,4,4)" v:tabSpace="42.5197"/>
			<v:textRect cx="33.0149" cy="279.701" width="66.03" height="16.0765"/>
			<rect x="0" y="271.663" width="66.0297" height="16.0765" class="st3"/>
			<text x="4" y="282.1" class="st5" v:langID="1040"><v:paragraph/><v:tabList/>Package</text>		</g>
		<g id="shape33-55" v:mID="33" v:groupContext="shape" transform="translate(228.477,-170.799)">
			<title>Foglio.33</title>
			<rect x="0" y="279.721" width="103.897" height="8.018" class="st2"/>
		</g>
		<g id="shape34-57" v:mID="34" v:groupContext="shape" transform="translate(228.477,-178.29)">
			<title>Foglio.34</title>
			<rect x="0" y="272.554" width="103.897" height="15.1856" class="st2"/>
		</g>
		<g id="shape36-59" v:mID="36" v:groupContext="shape" transform="translate(228.477,-178.493)">
			<title>Foglio.36</title>
			<desc>*abstract: boolean</desc>
			<v:textBlock v:margins="rect(4,4,4,4)" v:tabSpace="42.5197"/>
			<v:textRect cx="51.9485" cy="280.45" width="103.9" height="14.5782"/>
			<rect x="0" y="273.161" width="103.897" height="14.5782" class="st3"/>
			<text x="4" y="282.85" class="st4" v:langID="1040"><v:paragraph/><v:tabList/>*abstract: boolean</text>		</g>
		<g id="shape37-62" v:mID="37" v:groupContext="shape" transform="translate(228.477,-193.678)">
			<title>Foglio.37</title>
			<rect x="0" y="270.731" width="103.897" height="17.0079" class="st2"/>
		</g>
		<g id="shape38-64" v:mID="38" v:groupContext="shape" transform="translate(229.493,-194.61)">
			<title>Foglio.38</title>
			<desc>ValueClass</desc>
			<v:textBlock v:margins="rect(4,4,4,4)" v:tabSpace="42.5197"/>
			<v:textRect cx="41.5188" cy="279.701" width="83.04" height="16.0765"/>
			<rect x="0" y="271.663" width="83.0376" height="16.0765" class="st3"/>
			<text x="20.17" y="282.1" class="st5" v:langID="1040"><v:paragraph v:horizAlign="1"/><v:tabList/>ValueClass</text>		</g>
		<g id="shape35-67" v:mID="35" v:groupContext="shape" transform="translate(188.792,-265.964) scale(-1,1)">
			<title>Foglio.35</title>
			<path d="M0 287.74 L60.51 287.74" class="st7"/>
		</g>
		<g id="shape39-70" v:mID="39" v:groupContext="shape" transform="translate(472.711,24.531) rotate(90) scale(-1,1)">
			<title>Foglio.39</title>
			<path d="M5.67 287.74 L0 287.74 L2.83 284.42 L5.67 287.74 Z" class="st8"/>
		</g>
		<g id="shape40-72" v:mID="40" v:groupContext="shape" transform="translate(-102.767,24.531) rotate(-90)">
			<title>Foglio.40</title>
			<path d="M5.67 287.74 L0 287.74 L2.83 284.42 L5.67 287.74 Z" class="st8"/>
		</g>
		<g id="shape41-74" v:mID="41" v:groupContext="shape" transform="translate(165.129,-266.468) scale(-1,1)">
			<title>Foglio.41</title>
			<desc>0…*</desc>
			<v:textBlock v:margins="rect(4,4,4,4)" v:tabSpace="42.5197"/>
			<v:textRect cx="11.9197" cy="282.779" width="23.84" height="9.92126"/>
			<rect x="0" y="277.818" width="23.8394" height="9.92126" class="st3"/>
			<text x="-19.84" y="285.18" transform="scale(-1,1)" class="st4" v:langID="1040"><v:paragraph/><v:tabList/>0…*</text>		</g>
		<g id="shape42-77" v:mID="42" v:groupContext="shape" transform="translate(-81.5074,40.81) rotate(-90) scale(-1,1)">
			<title>Foglio.42</title>
			<path d="M0 287.74 L36.45 287.74" class="st7"/>
		</g>
		<g id="shape43-80" v:mID="43" v:groupContext="shape" transform="translate(209.066,-243.283) scale(-1,1)">
			<title>Foglio.43</title>
			<path d="M5.67 287.74 L0 287.74 L2.83 284.42 L5.67 287.74 Z" class="st8"/>
		</g>
		<g id="shape44-82" v:mID="44" v:groupContext="shape" transform="translate(209.066,332.195) rotate(180)">
			<title>Foglio.44</title>
			<path d="M5.67 287.74 L0 287.74 L2.83 284.42 L5.67 287.74 Z" class="st8"/>
		</g>
		<g id="shape45-84" v:mID="45" v:groupContext="shape" transform="translate(203.411,-223.098) scale(-1,1)">
			<title>Foglio.45</title>
			<desc>1…1</desc>
			<v:textBlock v:margins="rect(4,4,4,4)" v:tabSpace="42.5197"/>
			<v:textRect cx="12.7701" cy="282.779" width="25.55" height="9.92126"/>
			<rect x="0" y="277.818" width="25.5402" height="9.92126" class="st3"/>
			<text x="-21.54" y="285.18" transform="scale(-1,1)" class="st4" v:langID="1040"><v:paragraph/><v:tabList/>1…1</text>		</g>
		<g id="shape46-87" v:mID="46" v:groupContext="shape" transform="translate(-18.3515,40.8503) rotate(-90) scale(-1,1)">
			<title>Foglio.46</title>
			<path d="M0 287.74 L36.45 287.74" class="st7"/>
		</g>
		<g id="shape47-90" v:mID="47" v:groupContext="shape" transform="translate(272.222,-243.243) scale(-1,1)">
			<title>Foglio.47</title>
			<path d="M5.67 287.74 L0 287.74 L2.83 284.42 L5.67 287.74 Z" class="st8"/>
		</g>
		<g id="shape48-92" v:mID="48" v:groupContext="shape" transform="translate(272.222,332.236) rotate(180)">
			<title>Foglio.48</title>
			<path d="M5.67 287.74 L0 287.74 L2.83 284.42 L5.67 287.74 Z" class="st8"/>
		</g>
		<g id="shape49-94" v:mID="49" v:groupContext="shape" transform="translate(264.342,-223.098) scale(-1,1)">
			<title>Foglio.49</title>
			<desc>0…*</desc>
			<v:textBlock v:margins="rect(4,4,4,4)" v:tabSpace="42.5197"/>
			<v:textRect cx="11.9197" cy="282.779" width="23.84" height="9.92126"/>
			<rect x="0" y="277.818" width="23.8394" height="9.92126" class="st3"/>
			<text x="-19.84" y="285.18" transform="scale(-1,1)" class="st4" v:langID="1040"><v:paragraph/><v:tabList/>0…*</text>		</g>
		<g id="shape50-97" v:mID="50" v:groupContext="shape" transform="translate(-53.1468,117.345) rotate(-90) scale(-1,1)">
			<title>Foglio.50</title>
			<path d="M0 287.74 L36.45 287.74" class="st7"/>
		</g>
		<g id="shape51-100" v:mID="51" v:groupContext="shape" transform="translate(237.427,-166.748) scale(-1,1)">
			<title>Foglio.51</title>
			<path d="M5.67 287.74 L0 287.74 L2.83 284.42 L5.67 287.74 Z" class="st8"/>
		</g>
		<g id="shape52-102" v:mID="52" v:groupContext="shape" transform="translate(237.427,408.731) rotate(180)">
			<title>Foglio.52</title>
			<path d="M5.67 287.74 L0 287.74 L2.83 284.42 L5.67 287.74 Z" class="st8"/>
		</g>
		<g id="shape53-104" v:mID="53" v:groupContext="shape" transform="translate(231.744,-143.161) scale(-1,1)">
			<title>Foglio.53</title>
			<desc>1</desc>
			<v:textBlock v:margins="rect(4,4,4,4)" v:tabSpace="42.5197"/>
			<v:textRect cx="5.68346" cy="282.779" width="11.37" height="9.92126"/>
			<rect x="0" y="277.818" width="11.3669" height="9.92126" class="st3"/>
			<text x="-7.37" y="285.18" transform="scale(-1,1)" class="st4" v:langID="1040"><v:paragraph/><v:tabList/>1</text>		</g>
		<g id="shape54-107" v:mID="54" v:groupContext="shape" transform="translate(231.035,-134.046)">
			<title>Foglio.54</title>
			<path d="M0 279.2 L3.63 287.74 L7.09 279.2" class="st7"/>
		</g>
		<g id="shape55-110" v:mID="55" v:groupContext="shape" transform="translate(34.0186,117.345) rotate(-90) scale(-1,1)">
			<title>Foglio.55</title>
			<path d="M0 287.74 L64.82 287.74" class="st7"/>
		</g>
		<g id="shape56-113" v:mID="56" v:groupContext="shape" transform="translate(324.592,-166.748) scale(-1,1)">
			<title>Foglio.56</title>
			<path d="M5.67 287.74 L0 287.74 L2.83 284.42 L5.67 287.74 Z" class="st8"/>
		</g>
		<g id="shape57-115" v:mID="57" v:groupContext="shape" transform="translate(324.592,408.731) rotate(180)">
			<title>Foglio.57</title>
			<path d="M5.67 287.74 L0 287.74 L2.83 284.42 L5.67 287.74 Z" class="st8"/>
		</g>
		<g id="shape58-117" v:mID="58" v:groupContext="shape" transform="translate(349.381,-143.161) scale(-1,1)">
			<title>Foglio.58</title>
			<desc>0…*</desc>
			<v:textBlock v:margins="rect(4,4,4,4)" v:tabSpace="42.5197"/>
			<v:textRect cx="13.4646" cy="282.779" width="26.93" height="9.92126"/>
			<rect x="0" y="277.818" width="26.9291" height="9.92126" class="st3"/>
			<text x="-22.93" y="285.18" transform="scale(-1,1)" class="st4" v:langID="1040"><v:paragraph/><v:tabList/>0…*</text>		</g>
		<g id="shape60-120" v:mID="60" v:groupContext="shape" transform="translate(113.369,-94.2633)">
			<title>Foglio.60</title>
			<path d="M0 287.74 L12.5 287.74 L12.5 270.73 L0 270.73 L0 287.74 Z" class="st9"/>
		</g>
		<g id="shape59-122" v:mID="59" v:groupContext="shape" transform="translate(123.29,-98.2602) scale(-1,1)">
			<title>Foglio.59</title>
			<desc>T</desc>
			<v:textBlock v:margins="rect(4,4,4,4)" v:tabSpace="42.5197"/>
			<v:textRect cx="5.68346" cy="282.779" width="11.37" height="9.92126"/>
			<rect x="0" y="277.818" width="11.3669" height="9.92126" class="st3"/>
			<text x="-7.37" y="285.18" transform="scale(-1,1)" class="st4" v:langID="1040"><v:paragraph/><v:tabList/>T</text>		</g>
		<g id="shape61-125" v:mID="61" v:groupContext="shape" transform="translate(9.36567,-36.4876)">
			<title>Foglio.61</title>
			<desc>*isNil : boolean</desc>
			<v:textBlock v:margins="rect(4,4,4,4)" v:tabSpace="42.5197"/>
			<v:textRect cx="52.4409" cy="279.235" width="104.89" height="17.0079"/>
			<rect x="0" y="270.731" width="104.882" height="17.0079" class="st3"/>
			<text x="4" y="281.64" class="st4" v:langID="1040"><v:paragraph/><v:tabList/>*isNil    : boolean</text>		</g>
		<g id="shape62-128" v:mID="62" v:groupContext="shape" transform="translate(9.36567,-29.968)">
			<title>Foglio.62</title>
			<desc>*type : Class</desc>
			<v:textBlock v:margins="rect(4,4,4,4)" v:tabSpace="42.5197"/>
			<v:textRect cx="52.4409" cy="283.487" width="104.89" height="8.50394"/>
			<rect x="0" y="279.235" width="104.882" height="8.50394" class="st3"/>
			<text x="4" y="285.89" class="st4" v:langID="1040"><v:paragraph/><v:tabList/>*type    : Class</text>		</g>
		<g id="shape63-131" v:mID="63" v:groupContext="shape" transform="translate(9.64913,-17.779)">
			<title>Foglio.63</title>
			<desc>*scope : Class</desc>
			<v:textBlock v:margins="rect(4,4,4,4)" v:tabSpace="42.5197"/>
			<v:textRect cx="52.4409" cy="283.487" width="104.89" height="8.50394"/>
			<rect x="0" y="279.235" width="104.882" height="8.50394" class="st3"/>
			<text x="4" y="285.89" class="st4" v:langID="1040"><v:paragraph/><v:tabList/>*scope : Class</text>		</g>
		<g id="shape64-134" v:mID="64" v:groupContext="shape" transform="translate(9.64913,-5.87347)">
			<title>Foglio.64</title>
			<rect x="0" y="280.911" width="109.134" height="6.8287" class="st2"/>
		</g>
		<g id="shape65-136" v:mID="65" v:groupContext="shape" transform="translate(135.791,-77.2554)">
			<title>Foglio.65</title>
			<rect x="0" y="260.038" width="109.134" height="27.7017" class="st2"/>
		</g>
		<g id="shape66-138" v:mID="66" v:groupContext="shape" transform="translate(140.326,-81.1728)">
			<title>Foglio.66</title>
			<desc>&#60;&#60;enumeration&#62;&#62; PropertyStyle</desc>
			<v:textBlock v:margins="rect(4,4,4,4)" v:tabSpace="42.5197"/>
			<v:textRect cx="39.685" cy="276.942" width="79.38" height="21.5944"/>
			<rect x="0" y="266.145" width="79.3701" height="21.5944" class="st3"/>
			<text x="4" y="274.54" class="st4" v:langID="1040"><v:paragraph/><v:tabList/>&#60;&#60;enumeration&#62;&#62;<v:newlineChar/><tspan
						x="4" dy="1.2em" class="st10">PropertyStyle</tspan></text>		</g>
		<g id="shape67-142" v:mID="67" v:groupContext="shape" transform="translate(135.791,-12.9601)">
			<title>Foglio.67</title>
			<rect x="0" y="223.96" width="109.134" height="63.7795" class="st2"/>
		</g>
		<g id="shape68-144" v:mID="68" v:groupContext="shape" transform="translate(152.94,-59.1648)">
			<title>Foglio.68</title>
			<desc>*Simple</desc>
			<v:textBlock v:margins="rect(4,4,4,4)" v:tabSpace="42.5197"/>
			<v:textRect cx="22.9166" cy="279.235" width="45.84" height="17.0079"/>
			<rect x="0" y="270.731" width="45.8331" height="17.0079" class="st3"/>
			<text x="4" y="281.64" class="st4" v:langID="1040"><v:paragraph/><v:tabList/>*Simple</text>		</g>
		<g id="shape69-147" v:mID="69" v:groupContext="shape" transform="translate(153.312,-52.6451)">
			<title>Foglio.69</title>
			<desc>*List</desc>
			<v:textBlock v:margins="rect(4,4,4,4)" v:tabSpace="42.5197"/>
			<v:textRect cx="22.9166" cy="283.487" width="45.84" height="8.50394"/>
			<rect x="0" y="279.235" width="45.8331" height="8.50394" class="st3"/>
			<text x="4" y="285.89" class="st4" v:langID="1040"><v:paragraph/><v:tabList/>*List</text>		</g>
		<g id="shape72-150" v:mID="72" v:groupContext="shape" transform="translate(153.188,-36.4876)">
			<title>Foglio.72</title>
			<desc>*Indexed</desc>
			<v:textBlock v:margins="rect(4,4,4,4)" v:tabSpace="42.5197"/>
			<v:textRect cx="22.9166" cy="279.235" width="45.84" height="17.0079"/>
			<rect x="0" y="270.731" width="45.8331" height="17.0079" class="st3"/>
			<text x="4" y="281.64" class="st4" v:langID="1040"><v:paragraph/><v:tabList/>*Indexed</text>		</g>
		<g id="shape73-153" v:mID="73" v:groupContext="shape" transform="translate(153.188,-29.968)">
			<title>Foglio.73</title>
			<desc>*Constant</desc>
			<v:textBlock v:margins="rect(4,4,4,4)" v:tabSpace="42.5197"/>
			<v:textRect cx="22.9166" cy="283.487" width="45.84" height="8.50394"/>
			<rect x="0" y="279.235" width="45.8331" height="8.50394" class="st3"/>
			<text x="4" y="285.89" class="st4" v:langID="1040"><v:paragraph/><v:tabList/>*Constant</text>		</g>
		<g id="shape74-156" v:mID="74" v:groupContext="shape" transform="translate(153.312,-17.779)">
			<title>Foglio.74</title>
			<desc>*Element</desc>
			<v:textBlock v:margins="rect(4,4,4,4)" v:tabSpace="42.5197"/>
			<v:textRect cx="22.9166" cy="283.487" width="45.84" height="8.50394"/>
			<rect x="0" y="279.235" width="45.8331" height="8.50394" class="st3"/>
			<text x="4" y="285.89" class="st4" v:langID="1040"><v:paragraph/><v:tabList/>*Element</text>		</g>
		<g id="shape75-159" v:mID="75" v:groupContext="shape" transform="translate(135.791,-5.87347)">
			<title>Foglio.75</title>
			<rect x="0" y="280.911" width="109.134" height="6.8287" class="st2"/>
		</g>
		<g id="shape70-161" v:mID="70" v:groupContext="shape" transform="translate(260.799,-77.9002)">
			<title>Foglio.70</title>
			<rect x="0" y="260.038" width="116.929" height="27.7017" class="st2"/>
		</g>
		<g id="shape71-163" v:mID="71" v:groupContext="shape" transform="translate(260.799,-82.9247)">
			<title>Foglio.71</title>
			<desc>Property</desc>
			<v:textBlock v:margins="rect(4,4,4,4)" v:tabSpace="42.5197"/>
			<v:textRect cx="39.685" cy="276.942" width="79.38" height="21.5944"/>
			<rect x="0" y="266.145" width="79.3701" height="21.5944" class="st3"/>
			<text x="23.24" y="279.34" class="st5" v:langID="1040"><v:paragraph v:horizAlign="1"/><v:tabList/>Property</text>		</g>
		<g id="shape76-166" v:mID="76" v:groupContext="shape" transform="translate(260.799,-13.4759)">
			<title>Foglio.76</title>
			<rect x="0" y="223.96" width="116.929" height="63.7795" class="st2"/>
		</g>
		<g id="shape77-168" v:mID="77" v:groupContext="shape" transform="translate(261.082,-59.6806)">
			<title>Foglio.77</title>
			<desc>*style : PropertyStyle</desc>
			<v:textBlock v:margins="rect(4,4,4,4)" v:tabSpace="42.5197"/>
			<v:textRect cx="54.3389" cy="279.235" width="108.68" height="17.0079"/>
			<rect x="0" y="270.731" width="108.678" height="17.0079" class="st3"/>
			<text x="4" y="281.64" class="st4" v:langID="1040"><v:paragraph/><v:tabList/>*style : PropertyStyle</text>		</g>
		<g id="shape78-171" v:mID="78" v:groupContext="shape" transform="translate(261.963,-53.1609)">
			<title>Foglio.78</title>
			<desc>*baseType: String</desc>
			<v:textBlock v:margins="rect(4,4,4,4)" v:tabSpace="42.5197"/>
			<v:textRect cx="54.3389" cy="283.487" width="108.68" height="8.50394"/>
			<rect x="0" y="279.235" width="108.678" height="8.50394" class="st3"/>
			<text x="4" y="285.89" class="st4" v:langID="1040"><v:paragraph/><v:tabList/>*baseType: String</text>		</g>
		<g id="shape79-174" v:mID="79" v:groupContext="shape" transform="translate(261.67,-37.0035)">
			<title>Foglio.79</title>
			<desc>*collectionType: String</desc>
			<v:textBlock v:margins="rect(4,4,4,4)" v:tabSpace="42.5197"/>
			<v:textRect cx="54.3389" cy="279.235" width="108.68" height="17.0079"/>
			<rect x="0" y="270.731" width="108.678" height="17.0079" class="st3"/>
			<text x="4" y="281.64" class="st4" v:langID="1040"><v:paragraph/><v:tabList/>*collectionType: String</text>		</g>
		<g id="shape80-177" v:mID="80" v:groupContext="shape" transform="translate(261.67,-30.4838)">
			<title>Foglio.80</title>
			<desc>*defaultValue: Object</desc>
			<v:textBlock v:margins="rect(4,4,4,4)" v:tabSpace="42.5197"/>
			<v:textRect cx="54.3389" cy="283.487" width="108.68" height="8.50394"/>
			<rect x="0" y="279.235" width="108.678" height="8.50394" class="st3"/>
			<text x="4" y="285.89" class="st4" v:langID="1040"><v:paragraph/><v:tabList/>*defaultValue: Object</text>		</g>
		<g id="shape81-180" v:mID="81" v:groupContext="shape" transform="translate(261.963,-18.2948)">
			<title>Foglio.81</title>
			<desc>*unsettable: boolean</desc>
			<v:textBlock v:margins="rect(4,4,4,4)" v:tabSpace="42.5197"/>
			<v:textRect cx="54.3389" cy="283.487" width="108.68" height="8.50394"/>
			<rect x="0" y="279.235" width="108.678" height="8.50394" class="st3"/>
			<text x="4" y="285.89" class="st4" v:langID="1040"><v:paragraph/><v:tabList/>*unsettable: boolean</text>		</g>
		<g id="shape82-183" v:mID="82" v:groupContext="shape" transform="translate(260.799,-6.38929)">
			<title>Foglio.82</title>
			<rect x="0" y="280.911" width="116.929" height="6.8287" class="st2"/>
		</g>
		<g id="shape83-185" v:mID="83" v:groupContext="shape" transform="translate(571.881,182.137) rotate(90) scale(-1,1)">
			<title>Foglio.83</title>
			<path d="M0 287.74 L21.26 287.74" class="st7"/>
		</g>
		<g id="shape84-188" v:mID="84" v:groupContext="shape" transform="translate(281.307,466.23) scale(1,-1)">
			<title>Foglio.84</title>
			<path d="M5.67 287.74 L0 287.74 L2.83 284.42 L5.67 287.74 Z" class="st8"/>
		</g>
		<g id="shape85-190" v:mID="85" v:groupContext="shape" transform="translate(281.307,-109.248)">
			<title>Foglio.85</title>
			<path d="M5.67 287.74 L0 287.74 L2.83 284.42 L5.67 287.74 Z" class="st8"/>
		</g>
		<g id="shape87-192" v:mID="87" v:groupContext="shape" transform="translate(535.073,157.334) rotate(90)">
			<title>Foglio.87</title>
			<path d="M0 279.2 L3.63 287.74 L7.09 279.2" class="st7"/>
		</g>
		<g id="shape86-195" v:mID="86" v:groupContext="shape" transform="translate(311.822,-117.649) scale(-1,1)">
			<title>Foglio.86</title>
			<desc>0…1</desc>
			<v:textBlock v:margins="rect(4,4,4,4)" v:tabSpace="42.5197"/>
			<v:textRect cx="13.4646" cy="282.779" width="26.93" height="9.92126"/>
			<rect x="0" y="277.818" width="26.9291" height="9.92126" class="st3"/>
			<text x="-22.93" y="285.18" transform="scale(-1,1)" class="st4" v:langID="1040"><v:paragraph/><v:tabList/>0…1</text>		</g>
		<g id="shape88-198" v:mID="88" v:groupContext="shape" transform="translate(247.334,448.617) scale(1,-1)">
			<title>Foglio.88</title>
			<path d="M0 287.74 L36.81 287.74" class="st7"/>
		</g>
		<g id="shape89-201" v:mID="89" v:groupContext="shape" transform="translate(95.3148,-170.799)">
			<title>Foglio.89</title>
			<desc>: ValueClass</desc>
			<v:textBlock v:margins="rect(4,4,4,4)" v:tabSpace="42.5197"/>
			<v:textRect cx="30.1296" cy="280.45" width="60.26" height="14.5782"/>
			<rect x="0" y="273.161" width="60.2592" height="14.5782" class="st3"/>
			<text x="4" y="282.85" class="st4" v:langID="1040"><v:paragraph/><v:tabList/>: ValueClass</text>		</g>
	</g>
</svg>
